#!OML:ASF F:\VICON\USERDATA\INSTALL\rory3\rory3.ASF
:FULLY-SPECIFIED
:DEGREES
184
root 1.55789 17.1629 -23.7561 9.23746 -1.8238 4.7548
lowerback -7.53986 -2.06825 -5.72618
upperback -3.18842 -2.351 -0.213061
thorax 1.13828 -1.14014 2.79101
lowerneck -17.0554 -1.63068 -5.83906
upperneck 25.7646 -1.60548 3.50132
head 11.264 -0.871815 2.03632
rclavicle 3.29936e-015 -3.77691e-015
rhumerus -39.6385 3.8276 -88.2359
rradius 33.1242
rwrist 2.57356
rhand -26.6879 -44.2666
rfingers 7.12502
rthumb -0.11869 -74.2463
lclavicle 3.29936e-015 -3.77691e-015
lhumerus -20.1431 -18.2426 90.9701
lradius 36.9605
lwrist 8.39393
lhand -33.8902 -29.3699
lfingers 7.12502
lthumb -7.07362 0.49187
rfemur -43.8282 11.0084 10.0139
rtibia 22.0089
rfoot -4.93843 -13.7297
rtoes -8.99445
lfemur -0.195544 -4.67934 -31.4932
ltibia 19.7351
lfoot -20.717 2.66546
ltoes -3.84643
185
root 1.53581 17.1553 -23.5879 9.09861 -1.33339 4.7979
lowerback -8.21169 -2.25429 -5.77117
upperback -2.97913 -2.53944 -0.242656
thorax 1.74466 -1.25331 2.73977
lowerneck -16.4917 -1.6217 -5.91773
upperneck 25.5378 -1.62707 3.59176
head 11.0695 -0.880396 2.07649
rclavicle 3.22544e-014 1.31198e-014
rhumerus -39.5984 3.62909 -88.1394
rradius 32.69
rwrist 2.7017
rhand -27.506 -43.545
rfingers 7.12502
rthumb -0.908835 -73.5228
lclavicle 3.22544e-014 1.31198e-014
lhumerus -20.2461 -17.8982 90.9848
lradius 36.8161
lwrist 7.96124
lhand -33.7859 -29.8064
lfingers 7.12502
lthumb -6.97294 0.0587814
rfemur -43.3762 11.0836 9.93713
rtibia 22.7016
rfoot -4.93887 -14.0432
rtoes -8.8358
lfemur 0.473154 -4.91727 -31.4046
ltibia 20.0083
lfoot -20.7284 2.30541
ltoes -4.61973
186
root 1.51126 17.1418 -23.4252 9.15305 -0.967496 4.66752
lowerback -8.40147 -2.37872 -5.768
upperback -3.55473 -2.71317 -0.151729
thorax 1.27092 -1.31588 2.82024
lowerneck -14.5989 -1.55463 -5.94386
upperneck 25.3596 -1.61058 3.46761
head 10.6297 -0.905329 2.03608
rclavicle 1.11195e-014 1.72943e-014
rhumerus -41.108 3.78912 -88.1957
rradius 32.7397
rwrist 1.99613
rhand -26.4442 -46.0171
rfingers 7.12502
rthumb 0.116738 -75.9968
lclavicle 1.11195e-014 1.72943e-014
lhumerus -21.8119 -17.1715 91.4913
lradius 37.0081
lwrist 7.63032
lhand -33.3999 -29.8117
lfingers 7.12502
lthumb -6.60029 0.0654455
rfemur -43.2527 11.3565 9.97912
rtibia 23.5861
rfoot -5.04817 -14.4054
rtoes -8.7757
lfemur 0.909215 -5.03855 -31.1164
ltibia 20.2784
lfoot -20.7081 2.0823
ltoes -6.238
187
root 1.4895 17.1226 -23.2703 9.40742 -1.08062 4.31652
lowerback -8.61773 -2.34389 -5.46475
upperback -3.3446 -2.67319 0.0189337
thorax 1.60084 -1.30944 2.81885
lowerneck -16.172 -1.60255 -6.01096
upperneck 25.864 -1.53171 3.34897
head 11.1239 -0.883008 2.02157
rclavicle 2.52332e-014 1.13307e-014
rhumerus -40.4269 3.55765 -87.7304
rradius 32.6036
rwrist 3.28583
rhand -25.1845 -47.3497
rfingers 7.12502
rthumb 1.33333 -77.3252
lclavicle 2.52332e-014 1.13307e-014
lhumerus -21.1777 -16.9107 91.5036
lradius 36.6829
lwrist 7.55985
lhand -33.5708 -29.0885
lfingers 7.12502
lthumb -6.7653 0.783395
rfemur -43.302 11.474 10.5294
rtibia 24.3999
rfoot -5.15528 -14.1543
rtoes -9.09674
lfemur 0.994086 -4.8568 -30.6701
ltibia 20.6234
lfoot -20.5849 1.835
ltoes -7.25504
188
root 1.46132 17.1223 -23.093 9.53335 -0.613954 4.012
lowerback -8.68189 -2.46316 -5.34444
upperback -3.86396 -2.85589 0.201307
thorax 1.1165 -1.37862 2.93085
lowerneck -15.0488 -1.50831 -6.12653
upperneck 25.9388 -1.44383 3.35399
head 10.9261 -0.863742 2.05651
rclavicle -2.38045e-014 -2.22639e-014
rhumerus -41.6285 3.75134 -87.808
rradius 32.5082
rwrist 2.12654
rhand -26.4381 -46.5423
rfingers 7.12502
rthumb 0.122598 -76.522
lclavicle -2.38045e-014 -2.22639e-014
lhumerus -22.3614 -16.6958 92.0846
lradius 36.4376
lwrist 7.47484
lhand -33.604 -29.1616
lfingers 7.12502
lthumb -6.79732 0.709271
rfemur -42.8844 11.3427 11.1491
rtibia 25.211
rfoot -4.84214 -14.4351
rtoes -9.33353
lfemur 1.43272 -5.12222 -30.0852
ltibia 20.764
lfoot -20.3059 0.836382
ltoes -6.27152
189
root 1.44031 17.1242 -22.9253 9.93683 -0.934728 3.69254
lowerback -8.97989 -2.18582 -5.08753
upperback -3.97509 -2.49339 0.199254
thorax 1.12251 -1.19796 2.81483
lowerneck -15.8807 -1.69454 -6.10478
upperneck 26.4965 -1.70361 3.47686
head 11.317 -0.964048 2.06911
rclavicle -8.64713e-015 -1.86858e-014
rhumerus -41.6804 2.82333 -87.2959
rradius 32.6369
rwrist 3.44627
rhand -24.9405 -47.5234
rfingers 7.12502
rthumb 1.56902 -77.4974
lclavicle -8.64713e-015 -1.86858e-014
lhumerus -22.4572 -16.9571 92.2637
lradius 36.219
lwrist 7.50961
lhand -33.3829 -29.4476
lfingers 7.12502
lthumb -6.58386 0.430097
rfemur -43.1845 11.2895 11.8352
rtibia 25.9302
rfoot -3.43243 -14.2299
rtoes -10.6823
lfemur 1.5512 -5.04086 -29.6983
ltibia 20.7275
lfoot -19.7849 0.206514
ltoes -5.48697
190
root 1.41409 17.1597 -22.7347 9.69464 0.197008 3.52921
lowerback -9.04331 -2.59346 -5.01936
upperback -4.1172 -3.04169 0.357894
thorax 1.0621 -1.46702 2.88319
lowerneck -15.2844 -1.63472 -6.30364
upperneck 26.6631 -1.61455 3.50464
head 11.2587 -0.947728 2.12863
rclavicle -7.98866e-015 -1.15295e-014
rhumerus -42.42 3.21528 -87.3342
rradius 32.5255
rwrist 2.47774
rhand -26.3299 -46.0611
rfingers 7.12502
rthumb 0.227102 -76.0407
lclavicle -7.98866e-015 -1.15295e-014
lhumerus -23.3588 -16.3457 92.5486
lradius 36.1358
lwrist 7.32835
lhand -33.5133 -29.2128
lfingers 7.12502
lthumb -6.70972 0.66086
rfemur -42.6229 10.9914 12.1627
rtibia 26.6946
rfoot -2.9259 -15.1252
rtoes -9.56524
lfemur 2.71431 -5.70284 -29.1467
ltibia 20.2776
lfoot -19.0725 -0.644433
ltoes -5.62352
191
root 1.39561 17.1797 -22.5536 9.87668 -0.298781 3.25484
lowerback -10.1088 -2.26996 -4.74234
upperback -3.61171 -2.56155 0.265775
thorax 2.11616 -1.26147 2.63651
lowerneck -16.3328 -1.85248 -5.93196
upperneck 26.6843 -1.91299 3.34035
head 11.4883 -1.05635 1.9608
rclavicle -1.8313e-014 -1.98785e-015
rhumerus -41.5569 2.6522 -87.2304
rradius 32.0279
rwrist 1.9445
rhand -27.0769 -46.0093
rfingers 7.12502
rthumb -0.494386 -75.9885
lclavicle -1.8313e-014 -1.98785e-015
lhumerus -22.6418 -16.6734 92.3976
lradius 35.8335
lwrist 7.28262
lhand -33.9732 -29.1733
lfingers 7.12502
lthumb -7.15365 0.685802
rfemur -42.9172 11.2946 12.5503
rtibia 27.3078
rfoot -2.66599 -14.6749
rtoes -7.49844
lfemur 3.32475 -5.43664 -28.9179
ltibia 19.9038
lfoot -18.3704 -0.71396
ltoes -6.30785
192
root 1.36746 17.1964 -22.3633 10.0463 -0.149734 3.23418
lowerback -10.8728 -2.32344 -4.89446
upperback -3.72699 -2.5774 0.305184
thorax 2.42346 -1.27276 2.7374
lowerneck -15.7384 -1.85802 -5.95686
upperneck 26.5797 -1.94565 3.32264
head 11.3313 -1.07975 1.95347
rclavicle -9.38015e-016 -9.93923e-016
rhumerus -42.0067 1.99331 -86.652
rradius 31.9575
rwrist 3.61337
rhand -25.7466 -46.9378
rfingers 7.12502
rthumb 0.79053 -76.916
lclavicle -9.38015e-016 -9.93923e-016
lhumerus -23.3233 -16.5698 92.7537
lradius 35.4133
lwrist 8.04784
lhand -33.6492 -30.2231
lfingers 7.12502
lthumb -6.84098 -0.353578
rfemur -42.8676 11.4731 12.6471
rtibia 27.8697
rfoot -1.97801 -14.6515
rtoes -7.3801
lfemur 3.97679 -5.44198 -28.7238
ltibia 19.5487
lfoot -17.5519 -1.21169
ltoes -9.42043
193
root 1.34777 17.2106 -22.1954 10.0629 0.26751 2.78212
lowerback -10.4428 -2.36037 -4.42785
upperback -3.96414 -2.70682 0.457225
thorax 1.93991 -1.32447 2.63665
lowerneck -16.3042 -1.89076 -6.10977
upperneck 27.1764 -1.9453 3.40263
head 11.6772 -1.08706 2.01634
rclavicle -9.05713e-015 -8.94531e-015
rhumerus -42.5145 1.96736 -86.4934
rradius 32.0613
rwrist 3.38443
rhand -25.8573 -45.9677
rfingers 7.12502
rthumb 0.683587 -75.9464
lclavicle -9.05713e-015 -8.94531e-015
lhumerus -23.9438 -16.1846 93.0048
lradius 35.244
lwrist 8.27874
lhand -33.4776 -29.981
lfingers 7.12502
lthumb -6.67525 -0.106166
rfemur -42.4579 11.1768 13.4555
rtibia 28.3232
rfoot -1.28643 -14.2179
rtoes -7.62428
lfemur 4.46465 -5.60466 -28.0492
ltibia 19.6029
lfoot -16.6652 -1.83257
ltoes -12.0529
194
root 1.32649 17.2252 -22.0109 9.90216 0.191354 2.21148
lowerback -10.8859 -2.32675 -3.96541
upperback -3.96323 -2.69414 0.68501
thorax 2.17385 -1.32359 2.5997
lowerneck -15.8775 -1.84463 -6.25222
upperneck 27.3251 -1.85911 3.36602
head 11.6454 -1.07332 2.04244
rclavicle -2.98177e-015 -9.93923e-016
rhumerus -42.9817 1.93476 -86.0936
rradius 32.1951
rwrist 4.3291
rhand -23.5662 -47.5844
rfingers 7.12502
rthumb 2.89631 -77.5445
lclavicle -2.98177e-015 -9.93923e-016
lhumerus -24.692 -15.5589 93.2228
lradius 35.193
lwrist 7.98365
lhand -33.7707 -29.5179
lfingers 7.12502
lthumb -6.9582 0.347774
rfemur -41.8795 11.2032 14.4569
rtibia 28.7555
rfoot -1.05349 -13.5888
rtoes -6.1557
lfemur 4.94165 -5.43366 -27.366
ltibia 20.0624
lfoot -15.926 -2.25741
ltoes -11.6848
195
root 1.29719 17.2426 -21.8225 9.81718 0.312354 1.62696
lowerback -10.8603 -2.37967 -3.53903
upperback -4.36166 -2.82092 0.920942
thorax 1.74738 -1.37489 2.59862
lowerneck -15.2479 -1.77509 -6.35725
upperneck 27.6996 -1.78032 3.36002
head 11.6597 -1.06026 2.07576
rclavicle 1.35795e-014 1.88845e-014
rhumerus -44.0236 2.33829 -86.1951
rradius 32.1205
rwrist 3.25096
rhand -25.0353 -47.487
rfingers 7.12502
rthumb 1.47751 -77.4616
lclavicle 1.35795e-014 1.88845e-014
lhumerus -26.0401 -14.7815 93.4506
lradius 35.1323
lwrist 7.53808
lhand -33.981 -29.4635
lfingers 7.12502
lthumb -7.16124 0.395313
rfemur -41.2801 11.2353 15.4274
rtibia 29.1073
rfoot -0.994826 -13.1766
rtoes -3.35683
lfemur 5.13737 -5.17835 -26.5032
ltibia 20.8938
lfoot -15.188 -2.95932
ltoes -11.6748
